# xmcd CD database file
#
# Track frame offsets:
#	150
#	21850
#	68561
#	86067
#	134551
#	157939
#
# Disc length: 2670 seconds
#
# Revision: 0
# Processed by: cddbd v1.5.2PL0 Copyright (c) Steve Scherf et al.
# Submitted via: CDex 1.51
#
DISCID=460a6c06
DTITLE=Brüninghaus, Rainer - Continuum
DYEAR=1900
DGENRE=Jazz
TTITLE0=Stahlenspur
TTITLE1=Stille
TTITLE2=Continuum
TTITLE3=Raga Rag
TTITLE4=Schattenfrei
TTITLE5=Innerfern
EXTD=
EXTT0=
EXTT1=
EXTT2=
EXTT3=
EXTT4=
EXTT5=
PLAYORDER=
